<svg style="position: absolute; width: 0; height: 0;" width="0" height="0" version="1.1"
     xmlns="http://www.w3.org/2000/svg" xmlns:xlink="http://www.w3.org/1999/xlink">

    <defs>

        <symbol id="ico-unemployed" viewBox="0 0 25 24">
            <path d="M7.46183 20.64L22.3015 11.1V18.12C22.3015 19.56 21.2023 20.64 19.7366 20.64H7.46183ZM24.5 6.6L23.9504 6.96L21.5687 8.4L4.53053 19.56L1.96565 21L1.41603 20.28L0.5 18.84L3.98092 16.5V10.2C3.98092 8.76 5.26336 7.5 6.72901 7.5H8.37786V6.24C8.19466 4.44 9.66031 3 11.4924 3H14.6069C16.4389 3 17.9046 4.44 17.9046 6.24V7.5L22.8511 4.26L24.5 6.6ZM10.5763 7.5H15.8893V6.24C15.8893 5.7 15.3397 5.16 14.7901 5.16H11.4924C10.9427 5.16 10.3931 5.7 10.3931 6.24V7.5H10.5763Z"/>
        </symbol>

        <symbol id="ico-pin" viewBox="0 0 25 24">
            <path d="M19.5 9.37864C19.5 5.30097 16.1 2 12.1 2C8.1 2 4.5 5.30097 4.5 9.37864C4.5 9.37864 4.5 9.57282 4.5 9.76699C4.5 15.3981 7.7 20.2524 12.1 22C16.5 20.2524 19.5 15.3981 19.5 9.76699C19.5 9.57282 19.5 9.37864 19.5 9.37864ZM12.1 11.9029C10.3 11.9029 8.9 10.5437 8.9 8.79612C8.9 7.04854 10.3 5.8835 12.1 5.8835C13.9 5.8835 15.3 7.24272 15.3 8.99029C15.3 10.7379 13.7 11.9029 12.1 11.9029Z"/>
        </symbol>

        <symbol id="ico-facebook" viewBox="0 0 25 24">
            <path d="M14 8.25V5.25C14 4.422 14.672 3.75 15.5 3.75H17V0H14C11.5145 0 9.5 2.0145 9.5 4.5V8.25H6.5V12H9.5V24H14V12H17L18.5 8.25H14Z"/>
        </symbol>

        <symbol id="ico-google" viewBox="0 0 25 24">
            <g clip-path="url(#clip0_401_24)">
            <g clip-path="url(#clip1_401_24)">
            <path d="M24.4996 12.2807C24.4996 16.1226 22.9996 19.3404 20.4422 21.4259L16.7143 18.5468C18.6078 17.4 19.4389 15.5517 19.6258 14.4049H12.6963V10.2775H24.3078C24.4209 10.892 24.4996 11.4823 24.4996 12.2807Z" fill="#528DF7"/>
            <path d="M20.4423 21.4259C18.4406 23.0613 15.7849 24.0001 12.6964 24.0001C8.01441 24.0001 3.95703 21.421 1.91113 17.6226L5.64884 14.7388C6.74556 17.5694 9.49474 19.5775 12.6964 19.5775C14.3833 19.5775 15.6964 19.1613 16.7095 18.5468L20.4423 21.4259Z" fill="#27B446"/>
            <path d="M5.64918 14.7388L1.91148 17.6226C1.01148 15.9436 0.5 14.0323 0.5 12.0001C0.5 10.0355 0.977049 8.18231 1.82787 6.54199L5.56557 9.42586C5.29016 10.2049 5.1377 11.0662 5.1377 11.9952C5.1377 12.9678 5.31967 13.8872 5.64918 14.7388Z" fill="#FBBB01"/>
            <path d="M20.8757 3.14032L17.556 6.28065C13.8134 2.72419 7.29206 4.53871 5.56583 9.43064L1.82812 6.54677C3.8396 2.65645 7.94616 0 12.697 0C15.9822 0 18.7462 1.18548 20.8757 3.14032Z" fill="#F04436"/>
            </g>
            </g>
            <defs>
            <clipPath id="clip0_401_24">
            <rect width="24" height="24" fill="white" transform="translate(0.5)"/>
            </clipPath>
            <clipPath id="clip1_401_24">
            <rect width="24" height="24" fill="white" transform="translate(0.5)"/>
            </clipPath>
            </defs>
        </symbol>

        <symbol id="ico-instagram" viewBox="0 0 25 24">
            <path d="M12.5027 5.8467C9.09744 5.8467 6.35075 8.594 6.35075 12C6.35075 15.406 9.09744 18.1533 12.5027 18.1533C15.9079 18.1533 18.6546 15.406 18.6546 12C18.6546 8.594 15.9079 5.8467 12.5027 5.8467ZM12.5027 16.0004C10.3021 16.0004 8.50312 14.2064 8.50312 12C8.50312 9.7936 10.2968 7.99955 12.5027 7.99955C14.7086 7.99955 16.5022 9.7936 16.5022 12C16.5022 14.2064 14.7032 16.0004 12.5027 16.0004V16.0004ZM20.3412 5.595C20.3412 6.39295 19.6987 7.03024 18.9062 7.03024C18.1085 7.03024 17.4713 6.38759 17.4713 5.595C17.4713 4.80241 18.1138 4.15977 18.9062 4.15977C19.6987 4.15977 20.3412 4.80241 20.3412 5.595ZM24.4157 7.05166C24.3247 5.12909 23.8856 3.42609 22.4775 2.02298C21.0747 0.619882 19.3721 0.180743 17.4499 0.0843468C15.4689 -0.0281156 9.53112 -0.0281156 7.55008 0.0843468C5.6333 0.175388 3.93068 0.614526 2.52253 2.01763C1.11439 3.42073 0.680703 5.12373 0.584328 7.0463C0.471891 9.02778 0.471891 14.9669 0.584328 16.9483C0.675349 18.8709 1.11439 20.5739 2.52253 21.977C3.93068 23.3801 5.62794 23.8193 7.55008 23.9157C9.53112 24.0281 15.4689 24.0281 17.4499 23.9157C19.3721 23.8246 21.0747 23.3855 22.4775 21.977C23.8803 20.5739 24.3193 18.8709 24.4157 16.9483C24.5281 14.9669 24.5281 9.03314 24.4157 7.05166V7.05166ZM21.8564 19.0744C21.4388 20.1241 20.6303 20.9327 19.5755 21.3558C17.996 21.9824 14.2481 21.8378 12.5027 21.8378C10.7572 21.8378 7.00396 21.977 5.42984 21.3558C4.38042 20.9381 3.57195 20.1294 3.14897 19.0744C2.52253 17.4946 2.66709 13.7458 2.66709 12C2.66709 10.2542 2.52789 6.50006 3.14897 4.92558C3.56659 3.87593 4.37507 3.06728 5.42984 2.6442C7.00931 2.01763 10.7572 2.16222 12.5027 2.16222C14.2481 2.16222 18.0014 2.02298 19.5755 2.6442C20.6249 3.06192 21.4334 3.87058 21.8564 4.92558C22.4828 6.50541 22.3383 10.2542 22.3383 12C22.3383 13.7458 22.4828 17.4999 21.8564 19.0744Z" fill="url('#grad')"/>
            <defs>
                <linearGradient id="grad" x1="1" y1="2.5" x2="12.5" y2="24" gradientUnits="userSpaceOnUse">
                    <stop stop-color="#FF9900"/>
                    <stop offset="1" stop-color="#EC24C0"/>
                </linearGradient>
            </defs>
        </symbol>

        <symbol id="ico-linkedin" viewBox="0 0 23 24">
            <g clip-path="url(#clip0_401_73)">
            <path d="M5.47459 20.9998H0.95121V6.97946H5.47459V20.9998ZM3.21046 5.06696C1.76403 5.06696 0.59082 3.91384 0.59082 2.52165C0.59082 1.85293 0.866818 1.2116 1.3581 0.738747C1.84937 0.265892 2.51569 0.000244141 3.21046 0.000244141C3.90524 0.000244141 4.57155 0.265892 5.06283 0.738747C5.55411 1.2116 5.83011 1.85293 5.83011 2.52165C5.83011 3.91384 4.6564 5.06696 3.21046 5.06696ZM22.4041 20.9998H17.8905V14.1748C17.8905 12.5482 17.8564 10.4623 15.5387 10.4623C13.1869 10.4623 12.8265 12.2295 12.8265 14.0576V20.9998H8.30803V6.97946H12.6463V8.89196H12.7097C13.3135 7.7904 14.7887 6.6279 16.9895 6.6279C21.5674 6.6279 22.409 9.52946 22.409 13.2982V20.9998H22.4041Z" fill="#4285F4"/>
            </g>
            <defs>
            <clipPath id="clip0_401_73">
            <rect width="21.8182" height="24" fill="white" transform="translate(0.59082)"/>
            </clipPath>
            </defs>
        </symbol>

        <symbol id="ico-heart" viewBox="0 0 20 18">
            <path d="M17.058 0.547722C14.8863 -0.661842 11.6288 0.202132 10 2.44846C8.37124 0.202132 5.11371 -0.661842 2.94202 0.547722C-0.677452 2.44846 -0.858426 7.63231 1.85618 11.9522C4.93274 16.7904 10 18 10 18C10 18 15.0673 16.7904 18.1438 11.9522C20.8584 7.8051 20.6775 2.44846 17.058 0.547722Z"/>
        </symbol>

        <symbol id="ico-arrow" viewBox="0 0 32 32">
            <path d="M17.1818 4.32677L18.3636 3.10509C18.9545 2.49425 18.9545 1.6798 18.3636 1.06897L17.7727 0.458128C17.1818 -0.152709 16.3939 -0.152709 15.803 0.458128L10.4848 5.95567C10.2879 6.15928 10.2879 6.5665 10.4848 6.97373L16 12.6749C16.5909 13.2857 17.3788 13.2857 17.9697 12.6749L18.5606 12.064C19.1515 11.4532 19.1515 10.6388 18.5606 10.0279L16.9848 8.39902C21.3182 9.00985 24.8636 12.8785 24.8636 17.5616C24.8636 22.6519 20.9242 26.9278 15.803 26.9278C10.8788 26.7241 6.93939 22.6519 6.93939 17.5616C6.93939 16.7471 7.13636 15.9327 7.33333 15.1182C7.5303 13.8966 6.93939 12.8785 5.95455 12.4713C4.77273 12.2677 3.78788 12.8785 3.39394 13.8966C3.19697 15.1182 3 16.3399 3 17.5616C3 24.8916 8.71212 31 16 31C23.2879 31 29 25.0952 29 17.5616C28.803 10.6388 23.6818 4.9376 17.1818 4.32677Z"/>
        </symbol>

        <symbol id="ico-cross" viewBox="0 0 32 32">
            <path fill-rule="evenodd" clip-rule="evenodd" d="M4.73043 27.2727C5.21739 27.7576 5.70435 28 6.43478 28C7.16522 28 7.65217 28 8.13913 27.5152L16.1217 19.5671L23.8609 27.2727C24.8348 28.2424 26.2957 28.2424 27.2696 27.2727C28.2435 26.303 28.2435 24.8485 27.2696 23.8788L19.9652 16.6061C19.7217 16.3636 19.7217 15.6364 19.9652 15.3939L27.2696 8.12121C28.2435 7.15151 28.2435 5.69697 27.2696 4.72727C26.7826 4.24242 26.2957 4 25.5652 4C24.8348 4 24.3478 4 23.8609 4.48485L15.8783 12.4329L8.13913 4.72727C7.16522 3.75758 5.70435 3.75758 4.73043 4.72727C3.75652 5.69697 3.75652 7.15152 4.73043 8.12121L12.0348 15.3939C12.2783 15.6364 12.2783 16.3636 12.0348 16.6061L4.73043 23.8788C3.75652 24.8485 3.75652 26.303 4.73043 27.2727Z"/>
        </symbol>

        <symbol id="ico-heart-blue" viewBox="0 0 24 24">
            <path d="M19.058 3.54772C16.8863 2.33816 13.6288 3.20213 12 5.44846C10.3712 3.20213 7.11371 2.33816 4.94202 3.54772C1.32255 5.44846 1.14157 10.6323 3.85618 14.9522C6.93274 19.7904 12 21 12 21C12 21 17.0673 19.7904 20.1438 14.9522C22.8584 10.8051 22.6775 5.44846 19.058 3.54772Z" fill="url(#paint0_linear_401_57)"/>
            <defs>
            <linearGradient id="paint0_linear_401_57" x1="6" y1="3" x2="12" y2="17" gradientUnits="userSpaceOnUse">
            <stop stop-color="#6FA5FF"/>
            <stop offset="1" stop-color="#2E76F9"/>
            </linearGradient>
            </defs>
        </symbol>

        <symbol id="ico-down-arrow" viewBox="0 0 14 9">
            <path d="M13.2727 0.917458L12.7273 0.352753C12.3636 -0.0237179 11.6363 -0.0237179 11.2727 0.352753L7.22723 4.52344C7.04541 4.71167 6.68177 4.71167 6.31814 4.52344L2.27273 0.282322C1.72727 -0.0941482 1 -0.0941482 0.636364 0.282322L0.272727 0.658792C-0.0909091 1.03526 -0.0909091 1.7882 0.272727 2.35291L5.9545 8.28815C6.49995 8.85285 7.22723 8.85285 7.59086 8.28815L13.2727 2.42334C13.6363 1.85863 13.6363 1.29393 13.2727 0.917458Z"/>
        </symbol>

        <symbol id="ico-visa" viewBox="0 0 60 20">
            <path d="M26.0106 19.1408H21.1147L24.1745 0.336016H29.0709L26.0106 19.1408ZM16.996 0.336016L12.3285 13.2701L11.7762 10.4849L11.7767 10.4859L10.1293 2.02918C10.1293 2.02918 9.93008 0.336016 7.80684 0.336016H0.0905434L0 0.654426C0 0.654426 2.35966 1.14537 5.12123 2.80382L9.37475 19.1413H14.4759L22.2651 0.336016H16.996ZM55.5045 19.1408H60L56.0805 0.335513H52.1449C50.3275 0.335513 49.8848 1.73692 49.8848 1.73692L42.583 19.1408H47.6866L48.7072 16.3476H54.9311L55.5045 19.1408ZM50.1172 12.4889L52.6896 5.45171L54.1368 12.4889H50.1172ZM42.9658 4.85815L43.6645 0.819918C43.6645 0.819918 41.5086 0 39.2611 0C36.8315 0 31.0619 1.06187 31.0619 6.22535C31.0619 11.0835 37.8335 11.1439 37.8335 13.6957C37.8335 16.2475 31.7596 15.7902 29.755 14.1811L29.0272 18.4034C29.0272 18.4034 31.2133 19.4653 34.5533 19.4653C37.8944 19.4653 42.9346 17.7354 42.9346 13.0272C42.9346 8.13783 36.1021 7.6826 36.1021 5.55684C36.1026 3.43058 40.8707 3.70372 42.9658 4.85815Z"/>
        </symbol>

        <symbol id="ico-mastercard" viewBox="0 0 215 132">
            <path d="M211.961 106.814V104.254H211.292L210.518 106.011L209.749 104.254H209.078V106.814H209.553V104.885L210.276 106.549H210.769L211.492 104.881V106.814H211.963H211.961ZM207.718 106.814V104.692H208.574V104.26H206.387V104.692H207.243V106.814H207.714H207.718Z" fill="#F79410"/>
            <path d="M135.951 117.795H78.0789V14.0983H135.952L135.951 117.795Z" fill="#FF5F00"/>
            <path d="M81.748 65.9487C81.748 44.9138 91.6262 26.1759 107.009 14.1003C95.3649 4.94631 80.9636 -0.0218949 66.1356 -5.03418e-05C29.609 -5.03418e-05 0 29.5258 0 65.9487C0 102.372 29.609 131.897 66.1356 131.897C80.9639 131.919 95.3657 126.951 107.01 117.797C91.6284 105.724 81.748 86.9846 81.748 65.9487Z" fill="#EB001B"/>
            <path d="M214.027 65.9487C214.027 102.372 184.418 131.897 147.891 131.897C133.061 131.919 118.658 126.951 107.012 117.797C122.398 105.721 132.277 86.9846 132.277 65.9487C132.277 44.9128 122.398 26.1759 107.012 14.1003C118.658 4.94659 133.061 -0.021512 147.89 -5.28437e-05C184.417 -5.28437e-05 214.026 29.5258 214.026 65.9487" fill="#F79E1B"/>
        </symbol>

        <symbol id="ico-logo" viewBox="0 0 136 44">
            <path d="M2.95213 18.6306C1.96809 18.2342 1.37766 17.4414 0.787234 16.4504C0.196809 15.4595 0 14.4685 0 13.0811C0 11.8919 0.196809 10.9009 0.787234 9.90991C1.37766 8.91892 1.96809 8.12613 2.95213 7.72973C3.93617 7.13513 4.92021 6.93694 6.10106 6.93694C7.28192 6.93694 8.46277 7.33333 9.25 8.12613V1.98198H13.1862V19.4234H9.44681V18.2342C9.05319 18.6306 8.46277 19.027 7.87234 19.2252C7.28192 19.4234 6.69149 19.6216 5.90426 19.6216C4.92021 19.6216 3.93617 19.2252 2.95213 18.6306ZM8.46277 15.0631C9.05319 14.4685 9.25 13.8739 9.25 13.0811C9.25 12.2883 9.05319 11.6937 8.46277 11.0991C8.06915 10.7027 7.47872 10.5045 6.69149 10.5045C5.90426 10.5045 5.31383 10.7027 4.7234 11.2973C4.13298 11.8919 3.93617 12.4865 3.93617 13.2793C3.93617 14.0721 4.13298 14.6667 4.7234 15.2613C5.31383 15.6577 5.90426 15.8559 6.69149 15.8559C7.47872 15.8559 8.06915 15.6577 8.46277 15.0631ZM16.1383 5.15315V0L20.8617 2.57658V2.77477L16.1383 5.15315ZM15.9415 7.13513H19.8777V19.4234H15.9415V7.13513ZM26.3723 7.13513V8.32432C26.766 7.92793 27.3564 7.53153 27.9468 7.33333C28.5372 7.13513 29.1277 6.93694 29.9149 6.93694C31.2926 6.93694 32.2766 7.33333 33.2606 8.12613C34.0479 8.91892 34.4415 10.1081 34.4415 11.4955V12.4865H30.5053V12.0901C30.5053 11.6937 30.3085 11.2973 30.1117 10.9009C29.7181 10.7027 29.3245 10.5045 28.9309 10.5045C28.3404 10.5045 27.9468 10.7027 27.5532 11.0991C27.1596 11.4955 26.9628 12.0901 26.9628 12.6847V19.2252H23.0266V7.13513H26.3723ZM38.1809 18.8288C37.1968 18.2342 36.4096 17.6396 35.8192 16.6486C35.2287 15.6577 35.0319 14.6667 35.0319 13.4775C35.0319 12.2883 35.4255 11.0991 36.016 10.1081C36.6064 9.11712 37.3936 8.32432 38.3777 7.72973C39.3617 7.13513 40.5426 6.93694 41.7234 6.93694C42.9043 6.93694 44.0851 7.13513 45.0691 7.72973C45.8564 8.12613 46.6436 8.91892 47.234 9.90991C47.8245 10.9009 48.0213 11.8919 48.0213 13.2793C48.0213 13.6757 48.0213 14.0721 48.0213 14.4685H38.7713C38.9681 14.8649 39.3617 15.4595 39.7553 15.8559C40.3457 16.2523 40.9362 16.4504 41.7234 16.4504C42.117 16.4504 42.7074 16.4504 42.9043 16.2523C43.2979 16.0541 43.6915 15.8559 43.8883 15.4595H47.8245C47.6277 16.0541 47.4309 16.8468 46.8404 17.4414C46.25 18.036 45.6596 18.6306 44.6755 19.027C43.8883 19.4234 42.7075 19.6216 41.7234 19.6216C40.3457 19.6216 39.1649 19.2252 38.1809 18.8288ZM43.2979 10.5045C42.7074 10.1081 42.117 9.90991 41.5266 9.90991C40.9362 9.90991 40.3457 10.1081 39.7553 10.5045C39.3617 10.9009 38.9681 11.2973 38.7713 11.8919H44.2819C44.0851 11.2973 43.6915 10.9009 43.2979 10.5045ZM52.1543 18.6306C51.1702 18.036 50.383 17.2432 49.7926 16.4504C49.2021 15.4595 49.0053 14.4685 49.0053 13.2793C49.0053 11.8919 49.2021 10.9009 49.7926 9.90991C50.383 8.91892 51.1702 8.12613 52.1543 7.72973C53.1383 7.13513 54.3192 6.93694 55.5 6.93694C56.6809 6.93694 57.6649 7.13513 58.4521 7.72973C59.4362 8.12613 60.0266 8.91892 60.617 9.71171C61.2074 10.5045 61.4043 11.4955 61.6011 12.2883H57.6649C57.4681 11.8919 57.2713 11.4955 56.8777 11.0991C56.484 10.7027 55.8936 10.7027 55.5 10.7027C54.7128 10.7027 54.1223 10.9009 53.5319 11.4955C52.9415 12.0901 52.7447 12.6847 52.7447 13.4775C52.7447 14.2703 52.9415 14.8649 53.5319 15.4595C54.1223 16.0541 54.7128 16.2523 55.5 16.2523C56.0904 15.8559 56.6809 15.8559 57.0745 15.4595C57.4681 15.0631 57.8617 14.6667 57.8617 14.2703H61.7979C61.7979 15.2613 61.4043 16.0541 60.8138 17.045C60.2234 17.8378 59.4362 18.4324 58.6489 19.027C57.6649 19.4234 56.6809 19.8198 55.6968 19.8198C54.3191 19.6216 53.3351 19.2252 52.1543 18.6306ZM64.75 15.4595V10.7027H62.1915V7.13513H63.5691C64.1596 7.13513 64.5532 6.93694 64.9468 6.73874C65.3404 6.34234 65.3404 5.94595 65.3404 5.35135V4.16216H68.883V7.13513H72.8192V10.7027H68.883V14.4685C68.883 15.0631 69.0798 15.2613 69.2766 15.4595C69.2766 15.6577 69.6702 15.8559 70.2606 15.8559C70.8511 15.8559 71.6383 15.8559 72.6223 15.6577V19.2252C71.4415 19.4234 70.4575 19.4234 69.4734 19.4234C66.3245 19.4234 64.75 18.2342 64.75 15.4595ZM28.9309 22.1982V28.1441C29.9149 27.3513 30.8989 26.955 32.2766 26.955C33.2606 26.955 34.2447 27.1532 35.0319 27.5495C35.8191 27.9459 36.4096 28.7387 37 29.5315C37.3936 30.3243 37.5904 31.3153 37.5904 32.3063V39.6396H33.6543V33.2973C33.6543 32.5045 33.4574 31.9099 33.0638 31.5135C32.6702 31.1171 32.0798 30.9189 31.4894 30.9189C30.7021 30.9189 30.3085 31.1171 29.7181 31.5135C29.3245 31.9099 29.1277 32.5045 29.1277 33.2973V39.6396H25.1915V22.1982H28.9309ZM42.3138 39.045C41.3298 38.4505 40.5426 37.8559 39.9521 36.8649C39.3617 35.8739 39.1649 34.8829 39.1649 33.6937C39.1649 32.5045 39.3617 31.3153 39.9521 30.3243C40.5426 29.3333 41.3298 28.5405 42.3138 27.9459C43.2979 27.3514 44.4787 27.1532 45.6596 27.1532C46.8404 27.1532 48.0213 27.3514 49.0053 27.9459C49.9894 28.5405 50.7766 29.1351 51.367 30.1261C51.9575 31.1171 52.1543 32.1081 52.1543 33.4955C52.1543 33.8919 52.1543 34.2883 52.1543 34.6847H42.9043C43.1011 35.2793 43.2979 35.8739 43.8883 36.2703C44.4787 36.6667 45.0691 36.8649 45.8564 36.8649C46.25 36.8649 46.8404 36.8649 47.0372 36.6667C47.4309 36.4685 47.6277 36.2703 47.8245 36.0721H51.7606C51.5638 36.6667 51.367 37.4595 50.7766 38.0541C50.1862 38.6486 49.5957 39.2432 48.6117 39.6396C47.8245 40.036 46.6436 40.2342 45.6596 40.2342C44.4787 39.8378 43.2979 39.6396 42.3138 39.045ZM47.4309 30.7207C47.0372 30.3243 46.4468 30.1261 45.6596 30.1261C45.0692 30.1261 44.4787 30.3243 43.8883 30.7207C43.2979 31.1171 43.1011 31.5135 42.9043 32.1081H48.4149C48.2181 31.5135 47.8245 31.1171 47.4309 30.7207ZM53.9255 22.1982H57.8617V39.6396H53.9255V22.1982ZM64.3564 27.3514V28.5405C64.75 28.1441 65.3404 27.7477 65.9309 27.5495C66.5213 27.3513 67.1117 27.1532 67.8989 27.1532C69.0798 27.1532 70.0638 27.3514 71.0479 27.9459C72.0319 28.5405 72.6223 29.3333 73.2128 30.1261C73.8032 31.1171 74 32.1081 74 33.2973C74 34.4865 73.8032 35.6757 73.2128 36.4685C72.6223 37.4595 72.0319 38.2523 71.0479 38.6486C70.0638 39.2432 69.0798 39.4414 67.8989 39.4414C66.7181 39.4414 65.5372 39.045 64.75 38.2522V44H60.8138V26.955H64.3564V27.3514ZM69.0798 35.4775C69.6702 34.8829 69.867 34.2883 69.867 33.4955C69.867 32.7027 69.6702 32.1081 69.0798 31.5135C68.4894 30.9189 67.8989 30.7207 67.1117 30.7207C66.3245 30.7207 65.734 30.9189 65.3404 31.5135C64.75 32.1081 64.5532 32.7027 64.5532 33.4955C64.5532 34.2883 64.75 34.8829 65.3404 35.4775C65.9309 36.0721 66.5213 36.2703 67.1117 36.2703C67.7021 36.2703 68.6862 35.8739 69.0798 35.4775Z" fill="white"/>
            <path d="M103.6 10.75L92.8 21.5L82 10.75L92.8 0L103.6 10.75ZM114.4 0L103.6 10.75L114.204 21.3045L103.6 31.8591L114.4 42.6091L125.2 31.8591L136 21.1091L114.4 0ZM103.6 32.0546L92.8 21.5L82 32.25L92.8 43L103.6 32.0546Z" fill="#FBBB01"/>
        </symbol>

        <symbol id="ico-user" viewBox="0 0 38 38">
            <path fill-rule="evenodd" clip-rule="evenodd" d="M6.03623 6.03653C9.47447 2.59844 14.1374 0.666821 18.9998 0.666821L18.9998 0.666748C22.2179 0.666748 25.3794 1.51394 28.1665 3.12298C30.9534 4.73203 33.2679 7.0464 34.8769 9.83343C36.486 12.6205 37.3332 15.782 37.3332 19.0001C37.3332 23.8621 35.4015 28.5256 31.9634 31.9637C28.5252 35.4018 23.8618 37.3334 18.9998 37.3334C14.1378 37.3334 9.47432 35.4018 6.03623 31.9637C2.59813 28.5255 0.666504 23.8621 0.666504 19.0001C0.666504 14.1381 2.59813 9.47462 6.03623 6.03653ZM29.1758 29.9617C31.3719 27.92 32.9035 25.2654 33.5718 22.3419C34.2417 19.412 34.0135 16.3483 32.9162 13.5499C31.8192 10.7518 29.9047 8.34873 27.422 6.65471C24.939 4.96062 22.0036 4.05382 18.9981 4.05268C15.9923 4.05152 13.0561 4.95582 10.572 6.64787C8.08792 8.34022 6.17136 10.7413 5.07215 13.5388C3.97292 16.336 3.74187 19.3996 4.40943 22.3301C5.07729 25.2606 6.6122 27.922 8.81461 29.9676C10.1804 27.9595 12.1092 26.4001 14.3588 25.4859C16.6084 24.5714 19.0783 24.3426 21.4575 24.8283C23.8369 25.314 26.0195 26.4925 27.7306 28.2155C28.2672 28.7501 28.7511 29.3349 29.1758 29.9617ZM14.4182 10.0027C15.6331 8.78753 17.2814 8.10549 18.9999 8.10662V8.10655C20.7169 8.10742 22.3629 8.79063 23.5764 10.0055C24.7895 11.2205 25.4704 12.8673 25.4696 14.5843V17.1958C25.4696 19.5087 24.2356 21.6457 22.2327 22.8021C20.2295 23.9585 17.7619 23.9585 15.759 22.8021C13.7561 21.6458 12.5221 19.5087 12.5221 17.1958V14.5843C12.521 12.8658 13.203 11.2176 14.4182 10.0027Z" />
        </symbol>

        <symbol id="ico-options" viewBox="0 0 19 18">
            <path fill-rule="evenodd" clip-rule="evenodd" d="M15.8581 2.07692H16.4387C17.3097 2.07692 17.8903 2.76923 18.1807 3.46154V3.80769C18.1807 4.84615 17.6 5.53846 16.7291 5.53846H15.8581V6.23077C15.8581 6.92308 15.2774 7.61539 14.6968 7.61539H13.2452C12.6645 7.61539 12.0839 6.92308 12.0839 6.23077V5.53846H1.63228C0.761309 5.53846 0.180664 4.84615 0.180664 3.80769V3.46154C0.180664 2.76923 0.761309 2.07692 1.63228 1.73077H12.0839V1.38462C12.0839 0.692308 12.3742 0 13.2452 0H14.6968C15.2774 0 15.8581 0.692308 15.8581 1.38462V2.07692ZM5.98712 12.4617H16.4387C17.3097 12.4617 17.8903 13.154 17.8903 13.8463V14.1924C17.8903 15.2309 17.3097 15.9232 16.4387 15.9232H5.98712V16.6155C5.98712 17.3078 5.69679 18.0001 5.11615 18.0001H3.66454C3.08389 18.0001 2.50325 17.3078 2.50325 16.6155V15.9232H1.63228C0.761309 15.9232 0.180664 15.2309 0.180664 14.1924V13.8463C0.180664 13.154 0.761309 12.4617 1.63228 12.1155H2.21292V11.7694C2.21292 11.0771 2.79357 10.3848 3.37421 10.3848H4.82583C5.69679 10.3848 5.98712 11.0771 5.98712 11.7694V12.4617Z" fill="#4285F4"/>
        </symbol>

        <symbol id="ico-logo-footer" viewBox="0 0 54 43">
            <path d="M21.6 10.75L10.8 21.5L0 10.75L10.8 0L21.6 10.75ZM32.4 0L21.6 10.75L32.2036 21.3045L21.6 31.8591L32.4 42.6091L43.2 31.8591L54 21.1091L32.4 0ZM21.6 32.0546L10.8 21.5L0 32.25L10.8 43L21.6 32.0546Z" fill="#185AC8"/>
        </symbol>

   </defs>
</svg>